<svg width="19" height="20" viewBox="0 0 19 20" fill="none" xmlns="http://www.w3.org/2000/svg">
<path d="M14.7547 17.9144L15.1712 17.6379L14.6181 16.8048L14.2016 17.0813L14.7547 17.9144ZM18.5 9.99789H19V9.99778L18.5 9.99789ZM13.75 6.24789L13.75 5.74789L12.75 5.74789L12.75 6.24789L13.75 6.24789ZM12.75 9.99792C12.75 11.7929 11.2949 13.2479 9.5 13.2479V14.2479C11.8472 14.2479 13.75 12.3451 13.75 9.99792H12.75ZM9.5 13.2479C7.70507 13.2479 6.25 11.7929 6.25 9.99792H5.25C5.25 12.3451 7.15279 14.2479 9.5 14.2479V13.2479ZM6.25 9.99792C6.25 8.203 7.70507 6.74792 9.5 6.74792V5.74792C7.15279 5.74792 5.25 7.65071 5.25 9.99792H6.25ZM9.5 6.74792C11.2949 6.74792 12.75 8.203 12.75 9.99792H13.75C13.75 7.65071 11.8472 5.74792 9.5 5.74792V6.74792ZM14.2016 17.0813C12.6238 18.1289 10.7415 18.6195 8.85317 18.4754L8.77707 19.4725C10.8875 19.6335 12.9914 19.0852 14.7547 17.9144L14.2016 17.0813ZM8.85317 18.4754C6.96486 18.3312 5.17875 17.5606 3.77827 16.2858L3.10512 17.0253C4.67037 18.4501 6.6666 19.3114 8.77707 19.4725L8.85317 18.4754ZM3.77827 16.2858C2.37778 15.011 1.44313 13.305 1.12263 11.4385L0.13705 11.6078C0.495263 13.6939 1.53987 15.6006 3.10512 17.0253L3.77827 16.2858ZM1.12263 11.4385C0.802119 9.57205 1.11411 7.65199 2.0091 5.98301L1.12782 5.51042C0.127537 7.37575 -0.221162 9.52171 0.13705 11.6078L1.12263 11.4385ZM2.0091 5.98301C2.90409 4.31403 4.33081 2.99173 6.06288 2.22594L5.65851 1.31134C3.72267 2.16723 2.1281 3.64509 1.12782 5.51042L2.0091 5.98301ZM6.06288 2.22594C7.79495 1.46014 9.73315 1.29471 11.5699 1.75589L11.8135 0.785998C9.76058 0.270559 7.59435 0.455452 5.65851 1.31134L6.06288 2.22594ZM11.5699 1.75589C13.4067 2.21708 15.0369 3.27846 16.2018 4.77162L16.9902 4.15652C15.6883 2.48769 13.8664 1.30144 11.8135 0.785998L11.5699 1.75589ZM16.2018 4.77162C17.3667 6.26478 17.9996 8.1042 18 9.99801L19 9.99778C18.9995 7.88117 18.2922 5.82535 16.9902 4.15652L16.2018 4.77162ZM18 9.99789C18 10.9862 17.8191 11.818 17.466 12.3858C17.1316 12.9237 16.6327 13.2479 15.875 13.2479V14.2479C16.9923 14.2479 17.8059 13.7331 18.3152 12.9139C18.8059 12.1247 19 11.0815 19 9.99789H18ZM15.875 13.2479C15.1173 13.2479 14.6184 12.9237 14.284 12.3858C13.9309 11.818 13.75 10.9862 13.75 9.99792H12.75C12.75 11.0815 12.9441 12.1247 13.4348 12.9139C13.9441 13.7331 14.7577 14.2479 15.875 14.2479V13.2479ZM13.75 9.99793L13.75 6.24789L12.75 6.24789L12.75 9.99792L13.75 9.99793Z" fill="black"/>
</svg>
